<svg width="74" height="60" viewBox="0 0 74 60" fill="none" xmlns="http://www.w3.org/2000/svg">
<g filter="url(#filter0_d_3132_25)">
<path d="M26.9467 10.5393C28.595 7.30668 33.2257 7.30668 34.874 10.5393L36.9257 14.5631C37.5707 15.8279 38.7835 16.7085 40.1885 16.9321L44.6721 17.6458C48.2526 18.2157 49.6807 22.5898 47.1231 25.1528L43.8953 28.3875C42.8953 29.3896 42.4344 30.8073 42.6545 32.2039L43.3636 36.7036C43.9276 40.2822 40.1841 42.9888 36.9489 41.3416L32.9323 39.2965C31.6623 38.6499 30.1584 38.6499 28.8884 39.2965L24.8718 41.3416C21.6366 42.9888 17.8931 40.2822 18.4571 36.7036L19.1662 32.2039C19.3863 30.8073 18.9254 29.3896 17.9254 28.3875L14.6976 25.1528C12.14 22.5898 13.5681 18.2157 17.1486 17.6458L21.6322 16.9321C23.0372 16.7085 24.2501 15.8279 24.895 14.5631L26.9467 10.5393Z" fill="#FFE550"/>
<path d="M5.81671 33.0787L5.78209 33.0869C5.78623 33.2075 5.77971 33.6952 5.76253 34.55C5.75689 35.4021 5.75516 35.9616 5.75734 36.2284C5.7568 36.4838 5.75114 36.6917 5.74037 36.8523C5.74114 37.0101 5.74158 37.1923 5.74169 37.3989C5.73908 37.594 5.72831 37.7545 5.70937 37.8805C5.69925 37.9923 5.68913 38.1041 5.67901 38.2159C5.65605 38.4279 5.60996 38.5421 5.54073 38.5585C5.39075 38.594 5.15651 38.4793 4.83803 38.2143C4.51683 37.9379 4.33174 37.6961 4.28276 37.4889C4.23377 37.2818 4.22242 35.7652 4.24871 32.9394C4.28653 30.1108 4.21221 28.2506 4.02574 27.3589C3.98492 27.1863 3.99265 27.0386 4.04892 26.9159C4.10714 26.6469 4.40667 26.3937 4.94751 26.1564C5.49989 25.9162 6.3241 25.6665 7.42014 25.4071C8.52772 25.145 9.40663 24.9978 10.0569 24.9654C10.7186 24.9303 11.074 25.0164 11.123 25.2235C11.1556 25.3617 11.0807 25.4827 10.8982 25.5867C10.7156 25.6906 10.5535 25.7776 10.4117 25.8477C10.2671 25.9062 10.0778 25.9814 9.84366 26.0732C9.60682 26.1536 9.38728 26.2298 9.18505 26.302C8.9801 26.3627 8.71442 26.4499 8.388 26.5636C8.07312 26.6745 7.78131 26.7801 7.51258 26.8801C7.24113 26.9687 6.87569 27.0977 6.41626 27.2672C5.95684 27.4367 5.65926 27.5436 5.52354 27.5878C5.54324 27.6196 5.56125 27.6701 5.57758 27.7391C5.70548 28.2801 5.77441 29.5764 5.78435 31.628C6.50783 31.4932 7.27098 31.2944 8.0738 31.0315C8.88816 30.7658 9.38764 30.6111 9.57224 30.5675C10.0107 30.4637 10.2516 30.5039 10.2952 30.6881C10.3795 31.0448 9.94841 31.4629 9.00182 31.9421C8.06675 32.4186 7.00505 32.7975 5.81671 33.0787Z" fill="#2C2C2C"/>
<path d="M17.1146 29.8945C17.0221 29.5032 16.8716 29.1499 16.663 28.8347C16.4517 28.5079 16.2059 28.2926 15.9255 28.1888C15.1812 28.5959 14.6403 29.3741 14.3029 30.5235C13.9743 31.6586 13.9148 32.6693 14.1243 33.5555C14.3339 34.4418 14.6837 34.9424 15.1738 35.0573C15.9664 34.6996 16.5369 33.969 16.8851 32.8657C17.2422 31.7481 17.3187 30.7578 17.1146 29.8945ZM12.5999 31.1271C12.7914 30.1337 13.1422 29.2729 13.6522 28.5445C14.1711 27.8019 14.7709 27.35 15.4516 27.1889C16.1438 27.0251 16.7901 27.1821 17.3903 27.6599C17.9879 28.1261 18.386 28.7794 18.5847 29.6196C18.7806 30.4482 18.7801 31.3477 18.5831 32.318C18.3834 33.2768 17.9939 34.1286 17.4146 34.8734C16.8442 35.6039 16.161 36.0633 15.3649 36.2517C14.7765 36.391 14.2222 36.2366 13.702 35.7884C13.1818 35.3403 12.8238 34.7019 12.6279 33.8732C12.4292 33.033 12.4199 32.1176 12.5999 31.1271Z" fill="#2C2C2C"/>
<path d="M24.9564 28.0387C24.8639 27.6474 24.7133 27.2941 24.5048 26.9788C24.2935 26.6521 24.0477 26.4368 23.7673 26.333C23.0229 26.7401 22.4821 27.5183 22.1447 28.6677C21.8161 29.8028 21.7566 30.8135 21.9661 31.6997C22.1757 32.5859 22.5255 33.0865 23.0156 33.2015C23.8082 32.8437 24.3786 32.1132 24.7269 31.0099C25.084 29.8923 25.1605 28.9019 24.9564 28.0387ZM20.4417 29.2712C20.6332 28.2779 20.984 27.4171 21.494 26.6887C22.0129 25.9461 22.6126 25.4942 23.2933 25.3331C23.9856 25.1693 24.6318 25.3263 25.2321 25.804C25.8297 26.2703 26.2278 26.9235 26.4264 27.7637C26.6224 28.5924 26.6218 29.4919 26.4248 30.4622C26.2251 31.421 25.8357 32.2728 25.2564 33.0175C24.686 33.7481 24.0027 34.2075 23.2066 34.3959C22.6182 34.5352 22.064 34.3807 21.5438 33.9326C21.0236 33.4845 20.6656 32.8461 20.4696 32.0174C20.271 31.1772 20.2617 30.2618 20.4417 29.2712Z" fill="#2C2C2C"/>
<path d="M33.1418 17.8978C33.3264 17.8542 33.5922 17.9736 33.9392 18.256C34.295 18.5243 34.5083 18.808 34.5791 19.1073C34.6498 19.4065 34.707 20.2924 34.7506 21.7648C34.7914 23.2257 34.7984 24.7494 34.7714 26.3357C34.7353 29.8931 34.5846 31.7032 34.3193 31.766C34.1577 31.8042 33.9558 31.7487 33.7134 31.5995C33.4798 31.436 33.3453 31.2794 33.3099 31.1298C33.2746 30.9802 33.2442 30.6714 33.2188 30.2034C32.3603 31.6219 31.5099 32.4309 30.6677 32.6302C30.16 32.7503 29.6441 32.6294 29.1199 32.2673C28.6073 31.9024 28.2924 31.4726 28.1754 30.9777C28.0067 30.2641 27.997 29.3731 28.1465 28.3046C28.3047 27.222 28.652 26.1918 29.1884 25.2141C29.7247 24.2364 30.4025 23.6507 31.2216 23.4568C32.0408 23.2629 32.7275 23.6169 33.2819 24.5188C33.2934 21.9395 33.1606 19.9352 32.8836 18.5059C32.8019 18.1606 32.888 17.9579 33.1418 17.8978ZM33.2424 26.8252C33.0955 26.2037 32.862 25.7059 32.5422 25.3319C32.2338 24.9552 31.9296 24.8024 31.6297 24.8734C31.1336 24.9908 30.698 25.4159 30.3231 26.1488C29.9481 26.8817 29.6988 27.682 29.575 28.5499C29.4601 29.4036 29.4707 30.1181 29.6068 30.6936C29.6557 30.9008 29.7702 31.0499 29.9501 31.141C30.13 31.2321 30.3238 31.2531 30.5315 31.204C30.9815 31.0975 31.511 30.6319 32.12 29.8071C32.7406 28.9797 33.1206 28.0876 33.2599 27.131L33.2628 26.9115L33.2424 26.8252Z" fill="#2C2C2C"/>
<path d="M44.289 25.7787C44.5121 26.7225 44.273 27.6177 43.5716 28.4643C42.8676 29.2994 41.9617 29.848 40.8541 30.1101C39.7581 30.3695 38.7857 30.3018 37.9371 29.9071C37.0857 29.5009 36.6001 29.0446 36.4804 28.5382C36.3988 28.1929 36.4618 27.9957 36.6694 27.9466C36.854 27.9029 37.2828 28.0931 37.9557 28.5172C38.2096 28.6637 38.53 28.7824 38.917 28.8731C39.3154 28.9611 39.7108 28.9587 40.1031 28.8659C40.9107 28.6747 41.577 28.2983 42.1021 27.7365C42.6387 27.172 42.8498 26.648 42.7355 26.1646C42.662 25.8538 42.3605 25.5059 41.8308 25.1208C41.3012 24.7357 40.7322 24.3903 40.1239 24.0846C39.5244 23.7646 38.9584 23.4063 38.4261 23.0097C37.8937 22.6131 37.5935 22.2709 37.5255 21.9832C37.4575 21.6954 37.443 21.3768 37.4822 21.0272C37.5214 20.6776 37.5925 20.4116 37.6956 20.2292C38.0285 19.6278 38.619 19.008 39.4671 18.3698C40.3268 17.7288 41.0796 17.3319 41.7257 17.179C42.0603 17.0998 42.3688 17.1422 42.6513 17.3063C42.9337 17.4704 43.1035 17.6733 43.1607 17.915C43.1879 18.0301 43.0885 18.1508 42.8625 18.2772C42.6366 18.4036 42.2892 18.5831 41.8203 18.8156C41.3602 19.0338 40.9575 19.2628 40.6121 19.5026C39.4051 20.323 38.8573 20.9691 38.9689 21.441C39.0288 21.6942 39.8711 22.2423 41.4958 23.0854C42.1211 23.4114 42.7122 23.8245 43.269 24.3247C43.8347 24.8106 44.1747 25.2953 44.289 25.7787Z" fill="#2C2C2C"/>
<path d="M48.2624 26.6432C48.3142 26.8619 48.4669 26.9412 48.7207 26.8811C49.1592 26.7773 49.6613 26.5309 50.2272 26.1417C50.8018 25.7384 51.1238 25.5285 51.193 25.5121C51.4007 25.4629 51.5304 25.5477 51.5821 25.7664C51.661 26.1002 51.4061 26.5677 50.8172 27.1688C50.2399 27.7673 49.6686 28.1334 49.1033 28.2672C48.5495 28.3983 48.0526 28.3579 47.6127 28.146C47.17 27.9226 46.9106 27.6498 46.8344 27.3275C46.7582 27.0052 46.7308 26.5803 46.7522 26.0526C46.7709 25.5134 46.8106 24.8052 46.8712 23.9279C46.9406 23.0364 46.9864 22.3025 47.0085 21.726C46.4962 21.981 46.1477 22.1303 45.9631 22.174C45.7785 22.2177 45.5721 22.1693 45.344 22.0288C45.1247 21.8741 44.9946 21.7104 44.9538 21.5378C44.8885 21.2615 45.5758 20.8193 47.0158 20.2112C46.9976 19.2067 46.9014 18.3362 46.7273 17.5996C46.6456 17.2543 46.7202 17.0544 46.9509 16.9997C47.1471 16.9533 47.4193 17.0226 47.7676 17.2075C48.1132 17.381 48.3227 17.6231 48.3962 17.9338C48.4696 18.2446 48.5008 18.8145 48.4897 19.6436C49.1338 19.4304 49.6519 19.2774 50.0442 19.1846C50.7364 19.0207 51.1179 19.0884 51.1887 19.3877C51.2295 19.5603 51.0731 19.7493 50.7196 19.9545C50.3776 20.1569 49.6353 20.521 48.4925 21.0467C48.4652 22.0133 48.4058 23.1272 48.3142 24.3886C48.2198 25.6384 48.2026 26.39 48.2624 26.6432Z" fill="#2C2C2C"/>
<path d="M56.0037 17.5919C56.5228 17.469 57.0642 17.6204 57.6278 18.0461C58.1887 18.4603 58.5195 18.8803 58.6202 19.3062C58.7181 19.7205 58.6746 20.1805 58.4896 20.6861C58.6689 20.826 58.7735 20.9592 58.8034 21.0858C58.8796 21.4081 58.9352 21.9783 58.9703 22.7965C59.0169 23.6119 59.0515 24.1445 59.074 24.3944C59.1081 24.6416 59.1312 24.8427 59.1435 24.9978C59.1531 25.1414 59.1569 25.2863 59.155 25.4326C59.1769 25.7313 59.107 25.8997 58.9455 25.938C58.7379 25.9871 58.5226 25.8497 58.2998 25.5256C58.0858 25.1874 57.8992 24.7332 57.7401 24.1632C57.0208 25.7068 56.2227 26.5823 55.3459 26.7899C54.8152 26.9154 54.2372 26.8152 53.6118 26.4892C52.9953 26.149 52.63 25.7372 52.5157 25.2538C52.3524 24.5632 52.4048 23.6514 52.673 22.5184C52.9384 21.3739 53.3811 20.309 54.0009 19.3238C54.6208 18.3385 55.2883 17.7612 56.0037 17.5919ZM57.5182 20.442C57.2651 19.3716 56.9251 18.8869 56.4982 18.988C56.0483 19.0945 55.5995 19.541 55.152 20.3275C54.7017 21.1025 54.3641 21.942 54.1393 22.8459C53.9144 23.7499 53.8578 24.4378 53.9694 24.9097C54.0156 25.1054 54.1345 25.2474 54.3259 25.3358C54.5147 25.4127 54.7186 25.4252 54.9379 25.3733C55.4801 25.245 56.0059 24.7377 56.5151 23.8515C57.0217 22.9538 57.2838 21.9498 57.3015 20.8397C57.2953 20.6588 57.3689 20.532 57.5222 20.4593L57.5182 20.442Z" fill="#2C2C2C"/>
<path d="M53.9694 32.4588C53.4748 32.5812 53.0852 32.9568 52.9227 33.4385C49.8243 42.6232 41.1465 49.2285 30.9385 49.2285C24.747 49.2285 19.1184 46.7985 14.9563 42.8368C14.5871 42.4855 14.0661 42.3345 13.5708 42.4571C12.53 42.7147 12.1354 43.9719 12.9059 44.7157C17.578 49.2259 23.9346 52 30.9385 52C42.4422 52 52.1995 44.5164 55.6154 34.148C55.9506 33.1307 55.0116 32.2009 53.9694 32.4588Z" fill="#BBF330"/>
<path d="M7.03033 22.9912C7.59389 22.8517 8.01168 22.3831 8.11523 21.8133C10.0846 10.9767 19.5611 2.77153 30.9385 2.77153C38.3374 2.77153 44.9324 6.24161 49.1816 11.6488C49.5401 12.105 50.1293 12.3246 50.6933 12.185C51.6441 11.9497 52.0743 10.8481 51.4751 10.0752C46.7228 3.94518 39.291 0 30.9385 0C18.1287 0 7.48437 9.27939 5.35012 21.4883C5.18176 22.4513 6.07889 23.2267 7.03033 22.9912Z" fill="#BBF330"/>
<path d="M70 8.66363C63.8607 20.4304 61.1656 12.6692 52.5234 17.2283C53.3878 3.56927 62.5409 11.8802 70 8.66363Z" fill="#BBF330"/>
</g>
<defs>
<filter id="filter0_d_3132_25" x="0" y="0" width="74" height="60" filterUnits="userSpaceOnUse" color-interpolation-filters="sRGB">
<feFlood flood-opacity="0" result="BackgroundImageFix"/>
<feColorMatrix in="SourceAlpha" type="matrix" values="0 0 0 0 0 0 0 0 0 0 0 0 0 0 0 0 0 0 127 0" result="hardAlpha"/>
<feOffset dy="4"/>
<feGaussianBlur stdDeviation="2"/>
<feComposite in2="hardAlpha" operator="out"/>
<feColorMatrix type="matrix" values="0 0 0 0 0 0 0 0 0 0 0 0 0 0 0 0 0 0 0.25 0"/>
<feBlend mode="normal" in2="BackgroundImageFix" result="effect1_dropShadow_3132_25"/>
<feBlend mode="normal" in="SourceGraphic" in2="effect1_dropShadow_3132_25" result="shape"/>
</filter>
</defs>
</svg>
