<svg aria-hidden="true" style="position: absolute; width: 0; height: 0; overflow: hidden;" version="1.1" xmlns="http://www.w3.org/2000/svg" xmlns:xlink="http://www.w3.org/1999/xlink">
<defs>
<symbol id="icon-burger-menu" viewBox="0 0 43 32">
<path d="M0.592 3.556c0-1.146 0.929-2.075 2.075-2.075v0h37.333c1.146 0 2.075 0.929 2.075 2.075s-0.929 2.075-2.075 2.075h-37.333c-1.146 0-2.075-0.929-2.075-2.075v0zM0.592 16.066c0.001-1.145 0.929-2.073 2.075-2.073 0 0 0 0 0 0h37.333c1.119 0.034 2.014 0.949 2.014 2.074s-0.895 2.040-2.011 2.074l-0.003 0h-37.333c-1.146 0-2.075-0.929-2.075-2.075v0zM2.667 26.503c-1.119 0.034-2.014 0.949-2.014 2.074s0.895 2.040 2.011 2.074l0.003 0h37.333c0.018 0.001 0.039 0.001 0.061 0.001 1.146 0 2.075-0.929 2.075-2.075s-0.929-2.075-2.075-2.075c-0.021 0-0.043 0-0.064 0.001l0.003-0h-37.333z"></path>
</symbol>
<symbol id="icon-touch" viewBox="0 0 24 32">
<path d="M11.586 0.367c2.231 0 4.138 0.779 5.719 2.336 1.582 1.557 2.372 3.452 2.372 5.683 0 1.276-0.276 2.476-0.828 3.605-0.568 1.148-1.356 2.107-2.317 2.855l-0.018 0.014h-1.251v-1.839c0.692-0.546 1.246-1.236 1.623-2.026l0.015-0.034c0.359-0.746 0.569-1.622 0.569-2.547 0-0.009-0-0.019-0-0.028v0.001c0-1.619-0.576-2.991-1.728-4.119-1.153-1.129-2.538-1.693-4.157-1.693s-3.004 0.564-4.157 1.693c-1.151 1.128-1.728 2.5-1.728 4.119 0 0.907 0.19 1.766 0.569 2.574 0.392 0.824 0.946 1.514 1.626 2.051l0.012 0.009v2.648c-1.355-0.698-2.454-1.726-3.218-2.98l-0.020-0.035c-0.739-1.198-1.177-2.65-1.177-4.205 0-0.022 0-0.044 0-0.066l-0 0.003c0-2.231 0.79-4.126 2.372-5.683 1.581-1.557 3.487-2.336 5.719-2.336zM10.188 31.264c-0.416 0-0.809-0.079-1.176-0.238-0.371-0.161-0.689-0.378-0.957-0.645l-7.577-7.576 2.060-2.134c0.343-0.342 0.729-0.607 1.159-0.79 0.236-0.105 0.512-0.167 0.802-0.167 0.192 0 0.379 0.027 0.555 0.077l-0.014-0.003 2.869 0.662v-11.99c0-1.031 0.355-1.901 1.066-2.612 0.712-0.711 1.582-1.067 2.612-1.067s1.9 0.356 2.612 1.067c0.711 0.711 1.066 1.581 1.066 2.612v6.326h0.957c0.122 0 0.233 0.024 0.331 0.074 0.098 0.049 0.209 0.097 0.331 0.147l5.443 2.648c0.589 0.269 1.024 0.705 1.306 1.305 0.281 0.601 0.361 1.22 0.238 1.858l-1.324 8.018c-0.117 0.714-0.492 1.324-1.024 1.743l-0.006 0.004c-0.51 0.423-1.17 0.68-1.891 0.68-0.007 0-0.015-0-0.022-0h-9.416zM9.895 29.057h10.335l1.582-9.159-6.731-3.347h-2.024v-8.092c0-0.441-0.135-0.798-0.404-1.067-0.27-0.269-0.626-0.405-1.067-0.405s-0.797 0.136-1.067 0.405c-0.269 0.269-0.404 0.626-0.404 1.067v14.676l-5.665-1.214-0.845 0.845 6.29 6.29zM20.23 29.057v0z"></path>
</symbol>
<symbol id="icon-star" viewBox="0 0 34 32">
<path d="M15.42 1.038c0.584-1.384 2.576-1.384 3.16 0l3.448 8.162c0.246 0.582 0.804 0.98 1.444 1.032l8.952 0.706c1.516 0.12 2.132 1.982 0.976 2.958l-6.82 5.752c-0.367 0.308-0.598 0.767-0.598 1.281 0 0.138 0.017 0.272 0.048 0.401l-0.002-0.011 2.084 8.6c0.352 1.456-1.258 2.608-2.556 1.828l-7.664-4.61c-0.255-0.155-0.563-0.247-0.892-0.247s-0.637 0.092-0.9 0.251l0.008-0.004-7.664 4.61c-1.3 0.78-2.908-0.372-2.556-1.828l2.084-8.6c0.029-0.117 0.046-0.251 0.046-0.389 0-0.513-0.231-0.972-0.596-1.278l-0.003-0.002-6.82-5.75c-1.156-0.976-0.54-2.84 0.976-2.96l8.952-0.704c0.649-0.050 1.193-0.456 1.44-1.021l0.004-0.011 3.448-8.164z"></path>
</symbol>
<symbol id="icon-rocket" viewBox="0 0 32 32">
<path d="M4.838 13.295l4.039 1.714c0.457-0.914 0.945-1.815 1.466-2.704s1.073-1.741 1.657-2.553l-3.009-0.609-4.153 4.152zM10.705 16.381l5.066 5.067c1.58-0.723 2.918-1.473 4.187-2.317l-0.11 0.069c1.269-0.838 2.297-1.65 3.086-2.438 2.057-2.057 3.568-4.166 4.533-6.325 0.966-2.159 1.486-4.597 1.562-7.314-2.718 0.077-5.155 0.598-7.314 1.562s-4.266 2.477-6.323 4.534c-0.789 0.787-1.6 1.816-2.439 3.086-0.775 1.159-1.524 2.495-2.17 3.89l-0.077 0.185zM19.429 12.723c-0.507-0.507-0.762-1.136-0.762-1.886 0-0.749 0.255-1.377 0.762-1.886 0.507-0.507 1.136-0.761 1.886-0.761s1.378 0.254 1.886 0.761c0.507 0.509 0.762 1.137 0.762 1.886 0 0.75-0.255 1.378-0.762 1.886-0.507 0.509-1.136 0.762-1.886 0.762s-1.378-0.254-1.886-0.762zM18.857 27.314l4.152-4.152-0.609-3.010c-0.813 0.585-1.664 1.137-2.552 1.657-0.889 0.521-1.791 1.010-2.705 1.467l1.714 4.038zM31.277 0.877c0.229 3.454-0.203 6.602-1.296 9.447-1.091 2.846-2.895 5.525-5.409 8.039l-0.077 0.075-0.075 0.077 0.838 4.191c0.077 0.381 0.057 0.749-0.057 1.104-0.114 0.357-0.311 0.674-0.591 0.953l-6.514 6.552-3.238-7.543-6.477-6.477-7.543-3.238 6.553-6.514c0.279-0.279 0.597-0.477 0.952-0.591s0.723-0.133 1.105-0.057l4.19 0.839c0.022-0.022 0.047-0.042 0.075-0.056l0.002-0.001c0.029-0.016 0.055-0.035 0.076-0.057l0-0c2.514-2.514 5.193-4.325 8.038-5.429 2.845-1.105 5.993-1.543 9.448-1.314zM3.391 21.905c0.888-0.889 1.974-1.341 3.257-1.353 1.282-0.011 2.368 0.426 3.257 1.314 0.888 0.889 1.326 1.975 1.314 3.257-0.013 1.283-0.464 2.369-1.353 3.257-0.659 0.661-1.682 1.207-3.066 1.639s-3.461 0.838-6.229 1.218c0.381-2.768 0.781-4.85 1.2-6.247 0.419-1.398 0.959-2.426 1.619-3.086zM4.991 23.543c-0.355 0.381-0.674 0.978-0.953 1.791-0.279 0.811-0.52 1.854-0.723 3.123 1.27-0.203 2.311-0.445 3.123-0.723 0.813-0.28 1.41-0.598 1.791-0.953 0.482-0.431 0.73-0.971 0.743-1.618 0.001-0.021 0.001-0.045 0.001-0.070 0-0.634-0.255-1.208-0.668-1.627l0 0c-0.418-0.413-0.992-0.667-1.626-0.667-0.024 0-0.049 0-0.073 0.001l0.004-0c-0.646 0.001-1.224 0.288-1.616 0.74l-0.002 0.003z"></path>
</symbol>
<symbol id="icon-arrow-right" viewBox="0 0 18 32">
<path d="M17.653 15.035l-14.862-14.16c-0.239-0.228-0.563-0.368-0.92-0.368s-0.681 0.14-0.921 0.369l0.001-0-0.016 0.016c-0.235 0.224-0.382 0.539-0.382 0.889s0.146 0.665 0.381 0.889l0 0 13.995 13.333-13.995 13.328c-0.236 0.224-0.382 0.54-0.382 0.89s0.147 0.666 0.382 0.889l0.001 0 0.016 0.016c0.239 0.228 0.563 0.368 0.92 0.368s0.681-0.14 0.921-0.369l-0.001 0 14.862-14.16c0.255-0.243 0.413-0.586 0.413-0.965s-0.158-0.722-0.413-0.965l-0-0z"></path>
</symbol>
<symbol id="icon-arrow-left" viewBox="0 0 18 32">
<path d="M0.48 16.965l14.862 14.16c0.239 0.228 0.563 0.368 0.92 0.368s0.681-0.14 0.921-0.369l-0.001 0 0.016-0.016c0.236-0.224 0.382-0.54 0.382-0.89s-0.147-0.666-0.382-0.889l-0.001-0-13.995-13.333 13.995-13.327c0.236-0.224 0.382-0.54 0.382-0.89s-0.147-0.666-0.382-0.889l-0.001-0-0.016-0.016c-0.239-0.228-0.563-0.368-0.92-0.368s-0.681 0.14-0.921 0.369l0.001-0-14.862 14.16c-0.255 0.243-0.413 0.586-0.413 0.965s0.158 0.722 0.413 0.965l0.001 0z"></path>
</symbol>
<symbol id="icon-close-btn" viewBox="0 0 32 32">
<path d="M19.141 16.123l10.677-10.667c0.339-0.384 0.546-0.892 0.546-1.448 0-1.212-0.983-2.195-2.195-2.195-0.557 0-1.065 0.207-1.452 0.549l0.002-0.002-10.675 10.56-10.747-10.739c-0.378-0.317-0.87-0.51-1.407-0.51-1.214 0-2.197 0.984-2.197 2.197 0 0.536 0.192 1.028 0.511 1.409l-0.003-0.003 10.72 10.845-10.499 10.363c-0.488 0.405-0.796 1.011-0.796 1.69 0 1.211 0.981 2.192 2.192 2.192 0.361 0 0.702-0.087 1.003-0.242l-0.012 0.006c0.28-0.138 0.517-0.323 0.71-0.546l0.002-0.003 10.477-10.469 10.413 10.403c0.375 0.307 0.86 0.493 1.388 0.493 1.215 0 2.2-0.985 2.2-2.2 0-0.527-0.185-1.011-0.495-1.39l0.003 0.004-10.368-10.296z"></path>
</symbol>

</defs>
</svg>
